HIERARCHY
ROOT Hips
{
	OFFSET -0.001795 -0.223333 0.028219
	CHANNELS 6 Xposition Yposition Zposition Zrotation Yrotation Xrotation 
	JOINT LeftUpLeg
	{
		OFFSET 0.069520 -0.091406 -0.006815
		CHANNELS 3 Zrotation Yrotation Xrotation
		JOINT LeftLeg
		{
			OFFSET 0.034277 -0.375199 -0.004496
			CHANNELS 3 Zrotation Yrotation Xrotation
			JOINT LeftFoot
			{
				OFFSET -0.013596 -0.397961 -0.043693
				CHANNELS 3 Zrotation Yrotation Xrotation
				JOINT LeftToe
				{
					OFFSET 0.026358 -0.055791 0.119288
					CHANNELS 3 Zrotation Yrotation Xrotation
					End Site
					{
						OFFSET 0.000000 0.000000 0.000000
					}
				}
			}
		}
	}
	JOINT RightUpLeg
	{
		OFFSET -0.067670 -0.090522 -0.004320
		CHANNELS 3 Zrotation Yrotation Xrotation
		JOINT RightLeg
		{
			OFFSET -0.038290 -0.382569 -0.008850
			CHANNELS 3 Zrotation Yrotation Xrotation
			JOINT RightFoot
			{
				OFFSET 0.015774 -0.398415 -0.042312
				CHANNELS 3 Zrotation Yrotation Xrotation
				JOINT RightToe
				{
					OFFSET -0.025372 -0.048144 0.123348
					CHANNELS 3 Zrotation Yrotation Xrotation
					End Site
					{
						OFFSET 0.000000 0.000000 0.000000
					}
				}
			}
		}
	}
	JOINT Spine
	{
		OFFSET -0.002533 0.108963 -0.026696
		CHANNELS 3 Zrotation Yrotation Xrotation
		JOINT Spine1
		{
			OFFSET 0.005487 0.135180 0.001092
			CHANNELS 3 Zrotation Yrotation Xrotation
			JOINT Spine2
			{
				OFFSET 0.001457 0.052922 0.025425
				CHANNELS 3 Zrotation Yrotation Xrotation
				JOINT Neck
				{
					OFFSET -0.002778 0.213870 -0.042857
					CHANNELS 3 Zrotation Yrotation Xrotation
					JOINT Head
					{
						OFFSET 0.005152 0.064970 0.051349
						CHANNELS 3 Zrotation Yrotation Xrotation
						End Site
						{
							OFFSET 0.000000 0.000000 0.000000
						}
					}
				}
				JOINT LeftShoulder
				{
					OFFSET 0.078845 0.121749 -0.034090
					CHANNELS 3 Zrotation Yrotation Xrotation
					JOINT LeftArm
					{
						OFFSET 0.090977 0.030469 -0.008868
						CHANNELS 3 Zrotation Yrotation Xrotation
						JOINT LeftForeArm
						{
							OFFSET 0.259612 -0.012772 -0.027456
							CHANNELS 3 Zrotation Yrotation Xrotation
							JOINT LeftHand
							{
								OFFSET 0.249234 0.008986 -0.001171
								CHANNELS 3 Zrotation Yrotation Xrotation
								End Site
								{
									OFFSET 0.000000 0.000000 0.000000
								}
							}
						}
					}
				}
				JOINT RightShoulder
				{
					OFFSET -0.081759 0.118833 -0.038615
					CHANNELS 3 Zrotation Yrotation Xrotation
					JOINT RightArm
					{
						OFFSET -0.096012 0.032551 -0.009143
						CHANNELS 3 Zrotation Yrotation Xrotation
						JOINT RightForeArm
						{
							OFFSET -0.253742 -0.013329 -0.021401
							CHANNELS 3 Zrotation Yrotation Xrotation
							JOINT RightHand
							{
								OFFSET -0.255298 0.007772 -0.005559
								CHANNELS 3 Zrotation Yrotation Xrotation
								End Site
								{
									OFFSET 0.000000 0.000000 0.000000
								}
							}
						}
					}
				}
			}
		}
	}
}
MOTION
Frames: 7
Frame Time: 0.050000
0.000000 0.956339 0.000000 -1.731388 -8.703080 7.963172 -2.410976 -1.338017 -13.217362 -1.042476 0.048919 5.564233 2.340784 6.585826 7.534651 0.000000 0.000000 0.000000 5.034047 1.395579 -11.232250 -0.591949 0.416791 6.766600 0.784941 -0.874349 4.331437 0.000000 0.000000 0.000000 4.843310 -0.950860 10.415936 -4.708733 1.587840 -20.026375 -1.701218 7.958747 26.960556 11.768577 -5.595801 -21.919479 0.000000 0.000000 0.000000 -13.192543 -3.769628 0.783371 -63.808606 -3.827405 -8.140371 1.241992 -30.441602 1.341314 0.000000 0.000000 0.000000 20.822334 -5.809620 -3.965432 66.272021 0.520169 -8.631493 -2.026580 37.203863 1.878890 0.000000 0.000000 0.000000 
0.000304 0.955779 0.003949 -2.144803 -8.352782 8.763361 -1.340673 -1.177012 -12.534206 -1.858169 0.195382 3.913484 2.390303 6.718995 7.616758 0.000000 0.000000 0.000000 5.507987 1.522594 -11.913571 -1.071544 0.488609 6.815284 0.620727 -1.228461 4.321249 0.000000 0.000000 0.000000 5.081211 -0.941633 9.613904 -4.462423 1.530159 -19.170150 -1.892190 8.277160 26.437478 12.439821 -5.755023 -22.704503 0.000000 0.000000 0.000000 -13.659875 -2.724201 0.124105 -62.455963 -2.792234 -8.493003 -1.089183 -32.888365 2.081005 0.000000 0.000000 0.000000 20.487988 -6.983798 -4.503266 67.080715 -0.534756 -9.180287 -1.203838 38.842772 2.327125 0.000000 0.000000 0.000000 
0.000695 0.955110 0.007522 -1.709764 -7.182977 8.843562 -1.624869 -1.225712 -12.678072 -1.701956 0.157870 4.225125 1.816847 5.581896 6.724664 0.000000 0.000000 0.000000 5.255335 1.462367 -11.634779 -0.978808 0.478118 6.955620 -0.341049 -3.155093 3.960879 0.000000 0.000000 0.000000 5.481161 -0.956368 9.055575 -4.882892 1.680343 -18.716603 -2.448103 7.165631 25.887181 11.174703 -5.104318 -22.092972 0.000000 0.000000 0.000000 -12.482396 -1.544575 -0.318987 -63.630817 -2.814035 -8.558065 -0.437884 -34.300885 2.022890 0.000000 0.000000 0.000000 20.616036 -6.870029 -4.569573 66.172560 -1.723841 -9.694025 0.280304 40.691684 2.897413 0.000000 0.000000 0.000000 
0.000862 0.955685 0.010935 -1.719943 -7.239509 9.196179 -1.751237 -1.256929 -12.924047 -1.688073 0.157809 4.017807 1.075408 4.561196 8.140882 0.000000 0.000000 0.000000 5.335668 1.543295 -12.136272 -0.973429 0.478089 6.961796 -0.223780 -3.065778 4.283902 0.000000 0.000000 0.000000 5.575968 -0.980518 9.164971 -4.855474 1.642885 -20.567633 -2.358088 9.179541 27.779458 11.559398 -4.857802 -23.469105 0.000000 0.000000 0.000000 -12.501460 -2.523591 -0.131557 -62.877037 -3.078212 -8.657238 -1.100753 -36.310695 2.243011 0.000000 0.000000 0.000000 21.223526 -7.928592 -4.717676 65.730004 -1.759427 -9.826681 0.764817 42.038919 3.562917 0.000000 0.000000 0.000000 
0.000951 0.955383 0.013668 -1.489100 -6.414287 9.057155 -2.252352 -1.315687 -12.989403 -1.212389 0.065698 4.832890 1.003485 4.277767 7.243879 0.000000 0.000000 0.000000 5.114714 1.437004 -11.529321 -1.168323 0.480675 6.592820 -0.570921 -3.464167 3.614484 0.000000 0.000000 0.000000 5.267583 -0.977337 9.522065 -4.621952 1.594892 -20.828982 -2.177318 9.308695 28.327172 11.249310 -4.437384 -24.255369 0.000000 0.000000 0.000000 -12.407612 -2.304846 -0.332260 -62.682262 -3.301746 -8.619603 -1.598136 -39.510125 2.601008 0.000000 0.000000 0.000000 21.475834 -7.880549 -4.523482 64.258879 -0.744505 -9.182254 1.385803 42.589083 3.947390 0.000000 0.000000 0.000000 
0.000883 0.955032 0.015744 -1.173885 -5.658453 9.103814 -2.547077 -1.375123 -13.261931 -1.451686 0.092706 5.290265 0.510548 3.395177 7.078846 0.000000 0.000000 0.000000 4.933976 1.436751 -11.594116 -1.217316 0.497849 6.806152 -0.796861 -3.555089 2.823215 0.000000 0.000000 0.000000 5.149529 -1.009507 10.021755 -4.973521 1.700549 -20.935126 -1.909171 9.684369 28.350659 11.120422 -4.258023 -24.068071 0.000000 0.000000 0.000000 -12.938901 -2.672496 -0.374286 -61.514293 -3.473904 -8.397462 -2.110397 -42.299295 2.867118 0.000000 0.000000 0.000000 21.498526 -7.555409 -4.099061 63.365866 0.119455 -8.627087 0.375814 42.990976 3.713655 0.000000 0.000000 0.000000 
0.000763 0.954526 0.017372 -1.057448 -5.267076 9.339557 -2.781081 -1.468435 -13.951689 -1.292320 0.051581 6.113718 0.664393 3.609879 6.726233 0.000000 0.000000 0.000000 4.624668 1.375816 -11.320466 -1.024849 0.428052 6.152805 -0.794433 -3.485238 2.728779 0.000000 0.000000 0.000000 5.068588 -1.042666 10.487365 -5.181239 1.763027 -20.807298 -1.702319 9.971574 28.023416 11.538927 -4.346492 -24.466882 0.000000 0.000000 0.000000 -13.684113 -2.974959 -0.430918 -60.619249 -3.437422 -8.239846 -1.990297 -43.669609 2.807321 0.000000 0.000000 0.000000 21.922343 -7.391301 -3.896057 62.323033 1.119616 -8.001812 -0.318521 43.425223 3.548921 0.000000 0.000000 0.000000 
